<?xml version="1.0" encoding="UTF-8"?><svg id="Layer_1" xmlns="http://www.w3.org/2000/svg" viewBox="0 0 1920 1080"><defs><style>.cls-1{fill:#e29017;}</style></defs><ellipse class="cls-1" cx="700" cy="333.5" rx="153" ry="115.5"/><path class="cls-1" d="M245.93,458.84c76.64,.33,139.8-50.17,192.39-100.48,28.15-26.93,55.28-55.15,86.05-79.17,29.25-22.83,61.7-42.18,96.5-55.21s69.86-19.22,105.89-16.03,71.16,17.54,102.08,37.15c30.9,19.6,58.39,44.04,84.76,69.27,25.52,24.41,49.95,49.91,74.76,75.03,48.46,49.09,99.16,97.76,160.22,130.97,7.6,4.13,15.34,7.99,23.2,11.61,3.48,1.6,6.54-3.57,3.03-5.18-64.4-29.6-117.64-77.16-167.38-126.73-50.11-49.94-97.6-104.01-154.9-146.01-29.38-21.53-62.07-39.45-97.78-47.69-34.49-7.95-70.48-6.35-104.69,2.2s-68.41,24.56-98.77,44.16c-32.21,20.79-60.5,46.43-87.96,73.03-54.2,52.5-111.65,112-189.6,124.92-9.19,1.52-18.47,2.2-27.78,2.16-3.86-.02-3.87,5.98,0,6h0Z"/><path class="cls-1" d="M323.45,431.18c-25.6,18.35-58.72,.72-87.04,4.43-12.15,1.59-22.88,7.04-30.1,17.13-6.14,8.58-8.41,20-3.15,29.57,5.38,9.79,16.38,14.17,26.81,16.18,14.72,2.84,30.05,3.19,44.96,4.47,33.9,2.91,67.8,5.83,101.7,8.74s68.6,6.64,102.99,5.25c31.93-1.29,63.54-7.42,95.55-7.18,16.25,.12,32.5,2.04,47.97,7.17,13.65,4.53,26.39,11.36,39.11,17.98,24.18,12.59,48.6,23.51,76.5,21.34,26.86-2.09,52.05-12.5,78.02-18.81,25.34-6.16,52.27-7.3,74.32,8.82,20.69,15.13,32.2,40.25,38.99,64.26,8.01,28.35,10.4,58.06,20.23,85.93,8.64,24.5,23.63,46.49,47.03,58.91,20.15,10.69,44.82,11.76,63.46-2.69,16.5-12.79,23.66-34.15,24.29-54.41,.34-10.82-1.13-21.81-4.37-32.14-4.04-12.86-11.05-24.59-17.73-36.21-12.69-22.08-25.77-47.43-15.29-73.12,4.84-11.88,14.99-20.11,28-20.97,15.84-1.05,30.55,7.29,43.91,14.72,12.2,6.78,24.94,13.66,39.12,14.72,11.69,.88,23.65-3.95,31.29-12.92,6.94-8.16,9.06-19.47,3.24-28.88-4.96-8.03-14.05-11.59-23.05-12.73-10.3-1.29-20.88,.16-30.88,2.72-3.74,.96-2.15,6.74,1.6,5.79,10.08-2.58,21.08-4.17,31.41-2.14s19.63,8.91,18.34,20.24c-1.43,12.56-15.45,21.42-27.2,22.02-14.69,.75-28.45-7.12-40.84-14.01-20.86-11.59-49.46-25.11-70.32-5.89-15.24,14.04-17.19,38.7-11.54,57.54,7.72,25.72,26.86,46.24,34.53,71.91,5.98,20.03,5.58,43.47-4.35,62.22-10.73,20.26-32.68,30.44-55.1,24.98-24.45-5.95-43.72-25.56-54.23-47.75-22.76-48.04-16.02-106.3-49.73-149.85-14.59-18.85-35.38-30.49-59.36-31.48-25.09-1.04-49.43,7.91-73.17,14.75-25.51,7.35-51.31,12.47-77.3,4.33-25.84-8.09-48.13-24.39-73.51-33.66-28.22-10.31-58.61-9.67-88.1-6.97-31.51,2.88-62.5,6.59-94.22,5.35-32.71-1.27-65.35-4.8-97.96-7.6-32.6-2.8-65.19-5.6-97.79-8.4-11.82-1.02-25.38-1.36-35.51-8.35-10.93-7.54-10.69-21-3.3-30.98,18.47-24.94,54.41-10.72,79.84-10.11,12.3,.3,24.79-1.77,34.97-9.07,3.11-2.23,.12-7.44-3.03-5.18h0Z"/></svg>