<?xml version="1.0" encoding="UTF-8"?><svg id="utensils" xmlns="http://www.w3.org/2000/svg" viewBox="0 0 1920 1080"><path d="M684.39,593.62c29.38-25.57,70.61-36.18,108.83-29.39,10.9,1.94,21.53,5.27,31.54,10.01l.36-2.74c-15.22,4.75-30.44,9.5-45.66,14.25-1.49,.46-1.35,2.38,0,2.89,19.63,7.46,39.25,14.91,58.88,22.37l.4-2.95c-19.63-1.42-39.26-2.85-58.89-4.27-1.47-.11-2.06,2.14-.76,2.8,9.23,4.64,18.47,9.29,27.7,13.93,7.4,3.72,16.85,7.14,21.62,14.34,7.88,11.87-4.06,30.53-18.36,25.85-8.25-2.7-14.35-11.69-12.43-20.38l-2.51,.66c13.64,11.3,27.28,22.6,40.93,33.91l.66-2.51c-36.15,12.52-77.59,5.48-108.55-16.67-8.82-6.31-16.68-13.89-23.35-22.45l-1.06,2.56,1.01-.07c1.9-.13,1.95-3.04,0-3-60.99,1.26-121.97,2.53-182.96,3.79-60.99,1.26-121.97,2.53-182.96,3.79-23.38,.48-59.82,5.46-71.4-21.23-4.37-10.07-.94-21.16,8.1-27.21,8.2-5.48,18.61-7.13,28.26-7.68,13.17-.75,26.52,.36,39.7,.77l45.28,1.41c30.38,.94,60.76,1.89,91.13,2.83,60.76,1.89,121.51,3.78,182.27,5.67l22.93,.71c1.93,.06,1.93-2.94,0-3-62.67-1.95-125.33-3.9-188-5.84-31.33-.97-62.67-1.95-94-2.92l-47-1.46c-14.94-.46-29.92-1.28-44.87-1.35-16.96-.08-41.73,2.73-47.72,21.9-3.31,10.59,1.66,21.62,9.46,28.86,9.34,8.68,22.22,11.28,34.58,11.85,14.96,.69,30.09-.27,45.06-.58,15.68-.32,31.35-.65,47.03-.97,31.35-.65,62.71-1.3,94.06-1.95,62.71-1.3,125.41-2.6,188.12-3.9,7.65-.16,15.29-.32,22.94-.48v-3l-1.01,.07c-1.39,.1-1.86,1.53-1.06,2.56,24.02,30.87,63.76,47.94,102.63,46.07,10.96-.53,21.81-2.58,32.18-6.18,.97-.34,1.6-1.73,.66-2.51-13.64-11.3-27.28-22.6-40.93-33.91-.81-.67-2.24-.53-2.51,.66-3.64,16.4,16.33,32.14,30.58,21.28,5.8-4.42,9.24-12.06,8.51-19.35-.89-8.92-8.06-14.48-15.45-18.42-12.42-6.64-25.19-12.71-37.77-19.04l-.76,2.8c19.63,1.42,39.26,2.85,58.89,4.27,1.8,.13,1.87-2.39,.4-2.95-19.63-7.46-39.25-14.91-58.88-22.37v2.89c15.22-4.75,30.44-9.5,45.66-14.25,1.13-.35,1.59-2.16,.36-2.74-36.24-17.15-79.76-16.19-115.75,1.2-10.21,4.93-19.71,11.21-28.26,18.66-1.46,1.27,.67,3.38,2.12,2.12h0Z"/><path d="M961.93,596.55c32.43,8.43,66.09,10.02,99.41,7.72,33.81-2.33,67.23-8.36,100.49-14.6s68.13-13.15,102.64-16.66c33.92-3.45,68.42-3.7,101.98,2.97,34.06,6.77,66.71,20.36,95.53,39.73,3.51,2.36,6.96,4.81,10.35,7.33l.36-2.74c-38.9,15.07-80.86,17.01-122.11,15.62-41.93-1.42-83.83-6.07-125.81-4.09-20.72,.98-41.26,3.76-61.35,8.97-20.81,5.39-41.03,12.75-61.55,19.09-20.08,6.2-40.63,11.47-61.69,12.68-18.16,1.04-36.44-.78-54.08-5.16-35.31-8.77-68.12-27.74-92.76-54.59-3.05-3.32-5.96-6.77-8.75-10.31l-1.06,2.56c31.01-1.7,62.03-3.4,93.04-5.11,1.92-.11,1.93-3.11,0-3-31.01,1.7-62.03,3.4-93.04,5.11-1.39,.08-1.86,1.55-1.06,2.56,22.43,28.47,53.42,49.65,87.69,61.23,17.19,5.81,35.22,9.19,53.36,9.86,19.8,.73,39.4-2.19,58.55-7.08,21.16-5.4,41.69-12.9,62.54-19.34s41.86-11.27,63.56-13.32c42.36-4,84.9,.23,127.23,2.29,41.28,2.02,83.55,2.15,123.45-10.02,4.94-1.51,9.81-3.2,14.62-5.07,1.26-.49,1.43-1.95,.36-2.74-27.55-20.45-59.03-35.51-92.26-44.08-32.99-8.51-67.27-10.09-101.15-7.73-34.11,2.37-67.83,8.45-101.4,14.76s-68.25,13.18-102.83,16.63c-33.57,3.35-67.71,3.45-100.87-3.4-4.23-.87-8.44-1.87-12.62-2.96-1.87-.49-2.67,2.41-.8,2.89h0Z"/></svg>